<mxfile host="app.diagrams.net" modified="2024-05-17T13:13:30.351Z" agent="Mozilla/5.0 (Windows NT 10.0; Win64; x64) AppleWebKit/537.36 (KHTML, like Gecko) Chrome/124.0.0.0 Safari/537.36" version="24.4.4" etag="dGuYBRarTsis6eE8_vU4" type="github">
  <diagram name="Page-1" id="yk_KAXi7otHAW0exVbRE">
    <mxGraphModel>
      <root>
        <mxCell id="0" />
        <mxCell id="1" parent="0" />
      </root>
    </mxGraphModel>
  </diagram>
</mxfile>
